<svg xmlns="http://www.w3.org/2000/svg" width="1920" height="1080" viewBox="0 0 1920 1080">
  <defs>
    <linearGradient id="sky" x1="0" y1="0" x2="0" y2="1">
      <stop offset="0" stop-color="#000000"/>
      <stop offset="0.42" stop-color="#050508"/>
      <stop offset="0.74" stop-color="#0a0c12"/>
      <stop offset="1" stop-color="#0e121a"/>
    </linearGradient>
    <radialGradient id="moon" cx="0.78" cy="0.18" r="0.42">
      <stop offset="0" stop-color="#e6b325" stop-opacity="0.28"/>
      <stop offset="0.35" stop-color="#e6b325" stop-opacity="0.08"/>
      <stop offset="1" stop-color="#e6b325" stop-opacity="0"/>
    </radialGradient>
    <radialGradient id="horizon" cx="0.5" cy="1" r="0.72">
      <stop offset="0" stop-color="#1f355e" stop-opacity="0.18"/>
      <stop offset="1" stop-color="#1f355e" stop-opacity="0"/>
    </radialGradient>
    <filter id="clouds" x="0" y="0" width="100%" height="100%">
      <feTurbulence type="fractalNoise" baseFrequency="0.0016 0.004" numOctaves="5" seed="7"/>
      <feColorMatrix type="matrix" values="0 0 0 0 0.06  0 0 0 0 0.08  0 0 0 0 0.12  0.55 0 0 0 0"/>
    </filter>
    <filter id="bloom" x="-200%" y="-200%" width="500%" height="500%">
      <feGaussianBlur stdDeviation="4"/>
    </filter>
  </defs>

  <rect width="1920" height="1080" fill="url(#sky)"/>

  <!-- Nebula band: turbulence masked to a diagonal sweep so it reads as cloud
       rather than an even fog over the whole frame. -->
  <g opacity="0.5">
    <rect width="1920" height="1080" filter="url(#clouds)"/>
  </g>

  <g fill="#ffffff"><circle cx="1876.8" cy="332.5" r="0.62" opacity="0.82"/><circle cx="288.6" cy="55.3" r="1.22" opacity="0.27"/><circle cx="994.3" cy="171.8" r="1.33" opacity="0.21"/><circle cx="0.6" cy="806.2" r="2.31" opacity="0.85"/><circle cx="442.2" cy="248.6" r="1.83" opacity="0.23"/><circle cx="1217.8" cy="683.1" r="1.11" opacity="0.54"/><circle cx="1465.4" cy="149.5" r="0.5" opacity="0.48"/><circle cx="1043.1" cy="660.1" r="0.51" opacity="0.45"/><circle cx="934.3" cy="797.4" r="1.28" opacity="0.6"/><circle cx="871.3" cy="500.4" r="0.53" opacity="0.4"/><circle cx="1070.9" cy="12.5" r="0.53" opacity="0.47"/><circle cx="529.1" cy="236.9" r="0.52" opacity="0.84"/><circle cx="818.9" cy="108.3" r="0.51" opacity="0.9"/><circle cx="1626.4" cy="33.1" r="1.88" opacity="0.5"/><circle cx="1771.6" cy="374.7" r="0.53" opacity="0.24"/><circle cx="1457" cy="638.4" r="0.56" opacity="0.45"/><circle cx="237.9" cy="916.1" r="0.84" opacity="0.78"/><circle cx="440" cy="150.5" r="1.26" opacity="0.56"/><circle cx="1039" cy="275.7" r="1.04" opacity="0.66"/><circle cx="1831.1" cy="136" r="2.42" opacity="0.67"/><circle cx="427" cy="753.2" r="0.8" opacity="0.46"/><circle cx="1539.1" cy="663.2" r="0.53" opacity="0.83"/><circle cx="1280.1" cy="496" r="1.22" opacity="0.46"/><circle cx="397.9" cy="194.6" r="0.51" opacity="0.57"/><circle cx="176.6" cy="442.9" r="0.99" opacity="0.37"/><circle cx="644.7" cy="64.5" r="0.54" opacity="0.22"/><circle cx="1268.6" cy="810.4" r="1.85" opacity="0.39"/><circle cx="673.9" cy="63" r="0.55" opacity="0.59"/><circle cx="1837.5" cy="874.5" r="0.5" opacity="0.32"/><circle cx="864.4" cy="209.9" r="2.53" opacity="0.83"/><circle cx="942.9" cy="763.6" r="1.96" opacity="0.67"/><circle cx="1303.4" cy="605.3" r="0.55" opacity="0.76"/><circle cx="121.8" cy="642.4" r="1.91" opacity="0.45"/><circle cx="608.9" cy="717.4" r="1.71" opacity="0.83"/><circle cx="921.6" cy="171.8" r="0.54" opacity="0.27"/><circle cx="456.6" cy="177.6" r="0.57" opacity="0.8"/><circle cx="121.4" cy="753.3" r="1" opacity="0.34"/><circle cx="749.8" cy="230.5" r="0.51" opacity="0.88"/><circle cx="1644.1" cy="549.7" r="1.82" opacity="0.48"/><circle cx="682.6" cy="342.4" r="0.52" opacity="0.83"/><circle cx="939" cy="753.9" r="1.74" opacity="0.87"/><circle cx="234.9" cy="167.7" r="1.89" opacity="0.74"/><circle cx="374.6" cy="272" r="2.02" opacity="0.26"/><circle cx="1480.7" cy="566.1" r="1.02" opacity="0.73"/><circle cx="614.9" cy="142.5" r="0.67" opacity="0.46"/><circle cx="713.8" cy="768.8" r="0.5" opacity="0.24"/><circle cx="28.5" cy="886.9" r="1.08" opacity="0.73"/><circle cx="1531" cy="872.9" r="2.48" opacity="0.77"/><circle cx="1685.7" cy="159.9" r="0.6" opacity="0.2"/><circle cx="718.9" cy="306.6" r="0.5" opacity="0.6"/><circle cx="243.4" cy="85.5" r="0.51" opacity="0.83"/><circle cx="783.3" cy="276.9" r="0.78" opacity="0.51"/><circle cx="295.2" cy="262.9" r="2.73" opacity="0.84"/><circle cx="1248.6" cy="94" r="0.59" opacity="0.46"/><circle cx="1439" cy="328.8" r="1.45" opacity="0.4"/><circle cx="1573.2" cy="396.8" r="0.67" opacity="0.2"/><circle cx="1047.6" cy="647.8" r="0.58" opacity="0.88"/><circle cx="1336.1" cy="59.6" r="2.12" opacity="0.22"/><circle cx="149.8" cy="87.6" r="0.62" opacity="0.25"/><circle cx="908.1" cy="131.5" r="1.86" opacity="0.44"/><circle cx="577.9" cy="27.1" r="1.69" opacity="0.61"/><circle cx="703.7" cy="344.2" r="0.53" opacity="0.88"/><circle cx="823.5" cy="774.8" r="1.49" opacity="0.45"/><circle cx="90.3" cy="137.5" r="0.51" opacity="0.24"/><circle cx="723.1" cy="3.8" r="1.59" opacity="0.65"/><circle cx="648.3" cy="108.2" r="0.69" opacity="0.9"/><circle cx="619.9" cy="52.1" r="0.75" opacity="0.22"/><circle cx="1147.3" cy="124.4" r="0.79" opacity="0.31"/><circle cx="1891" cy="8.6" r="1.58" opacity="0.25"/><circle cx="838.2" cy="704" r="1.81" opacity="0.39"/><circle cx="974.8" cy="164.7" r="0.64" opacity="0.58"/><circle cx="1841.7" cy="225.8" r="0.59" opacity="0.39"/><circle cx="570.4" cy="636.3" r="2.31" opacity="0.79"/><circle cx="1529.7" cy="281.1" r="0.5" opacity="0.22"/><circle cx="798.9" cy="238.7" r="0.5" opacity="0.57"/><circle cx="86.4" cy="839.3" r="0.57" opacity="0.87"/><circle cx="192.2" cy="238.8" r="0.61" opacity="0.31"/><circle cx="1106.5" cy="431" r="1.14" opacity="0.62"/><circle cx="1337.4" cy="990.1" r="0.64" opacity="0.73"/><circle cx="1773" cy="146.8" r="0.51" opacity="0.26"/><circle cx="641.1" cy="808.5" r="0.83" opacity="0.72"/><circle cx="1200.7" cy="37.5" r="0.78" opacity="0.82"/><circle cx="46.3" cy="141.8" r="0.52" opacity="0.51"/><circle cx="801.5" cy="246.1" r="0.98" opacity="0.73"/><circle cx="137.6" cy="981.3" r="0.57" opacity="0.6"/><circle cx="1525.4" cy="212.3" r="0.52" opacity="0.28"/><circle cx="770.7" cy="506.7" r="1.18" opacity="0.89"/><circle cx="1181.9" cy="504.4" r="2.57" opacity="0.33"/><circle cx="1788" cy="82.3" r="2.29" opacity="0.24"/><circle cx="1541.8" cy="146.6" r="0.82" opacity="0.42"/><circle cx="1462.1" cy="13.7" r="0.56" opacity="0.62"/><circle cx="14.9" cy="868.2" r="2.54" opacity="0.46"/><circle cx="761.4" cy="950.7" r="1.21" opacity="0.84"/><circle cx="1141" cy="25.4" r="1.84" opacity="0.32"/><circle cx="277.6" cy="22.6" r="1.13" opacity="0.5"/><circle cx="1886.6" cy="512.5" r="0.5" opacity="0.31"/><circle cx="1049.8" cy="408.3" r="0.5" opacity="0.39"/><circle cx="214.8" cy="395.3" r="0.68" opacity="0.69"/><circle cx="1356.1" cy="239.2" r="0.53" opacity="0.27"/><circle cx="1442.3" cy="116.5" r="2.19" opacity="0.38"/><circle cx="160" cy="428.1" r="0.95" opacity="0.76"/><circle cx="417.6" cy="136.6" r="1.05" opacity="0.28"/><circle cx="574.8" cy="281.8" r="0.58" opacity="0.71"/><circle cx="317.1" cy="308.1" r="0.52" opacity="0.58"/><circle cx="995.7" cy="430.7" r="0.87" opacity="0.72"/><circle cx="1570.1" cy="776.7" r="1.09" opacity="0.19"/><circle cx="1822" cy="734.7" r="0.52" opacity="0.8"/><circle cx="743.2" cy="2.4" r="0.51" opacity="0.72"/><circle cx="708.1" cy="201.7" r="0.61" opacity="0.41"/><circle cx="953.3" cy="49.8" r="2.09" opacity="0.83"/><circle cx="1855.7" cy="286.3" r="0.57" opacity="0.3"/><circle cx="1380.6" cy="239.5" r="0.83" opacity="0.77"/><circle cx="720.6" cy="734.6" r="0.82" opacity="0.27"/><circle cx="345.5" cy="411.2" r="1.59" opacity="0.73"/><circle cx="1792.2" cy="292.6" r="2.29" opacity="0.62"/><circle cx="494" cy="734.2" r="0.55" opacity="0.27"/><circle cx="1658.5" cy="55" r="0.79" opacity="0.27"/><circle cx="189.8" cy="418.5" r="2.67" opacity="0.8"/><circle cx="445" cy="961.7" r="0.53" opacity="0.26"/><circle cx="898.7" cy="565.2" r="0.5" opacity="0.3"/><circle cx="1671.6" cy="384.9" r="0.59" opacity="0.73"/><circle cx="1018.5" cy="602.6" r="1.38" opacity="0.4"/><circle cx="1492.8" cy="201.5" r="0.5" opacity="0.65"/><circle cx="10.6" cy="249" r="1.04" opacity="0.53"/><circle cx="1743.2" cy="443.7" r="1.86" opacity="0.32"/><circle cx="1514.4" cy="142.1" r="0.5" opacity="0.37"/><circle cx="1401.3" cy="363.4" r="0.5" opacity="0.43"/><circle cx="761.4" cy="26" r="0.67" opacity="0.64"/><circle cx="1735.9" cy="262.9" r="0.51" opacity="0.5"/><circle cx="724.8" cy="705" r="0.74" opacity="0.19"/><circle cx="1513.2" cy="679" r="2.46" opacity="0.28"/><circle cx="839.6" cy="43.9" r="1.56" opacity="0.28"/><circle cx="660.6" cy="337.7" r="0.93" opacity="0.71"/><circle cx="1581.2" cy="271.3" r="0.89" opacity="0.73"/><circle cx="1.9" cy="380.6" r="2.1" opacity="0.32"/><circle cx="850.4" cy="981.3" r="0.54" opacity="0.5"/><circle cx="76.2" cy="71.1" r="0.5" opacity="0.29"/><circle cx="387.5" cy="32.7" r="0.5" opacity="0.84"/><circle cx="1157.1" cy="193.4" r="2.54" opacity="0.84"/><circle cx="1814.6" cy="308.4" r="0.51" opacity="0.71"/><circle cx="1900.4" cy="450.2" r="1.28" opacity="0.62"/><circle cx="525.1" cy="630.4" r="0.76" opacity="0.47"/><circle cx="1180.7" cy="127.6" r="0.5" opacity="0.21"/><circle cx="1714.6" cy="31.9" r="0.77" opacity="0.83"/><circle cx="689.3" cy="120.4" r="1.63" opacity="0.55"/><circle cx="886.8" cy="160.3" r="0.59" opacity="0.28"/><circle cx="842.2" cy="67.1" r="2.78" opacity="0.44"/><circle cx="561.4" cy="825.1" r="0.72" opacity="0.28"/><circle cx="423.5" cy="24.4" r="0.51" opacity="0.63"/><circle cx="1624" cy="514.9" r="1.62" opacity="0.47"/><circle cx="1783" cy="6.5" r="0.5" opacity="0.54"/><circle cx="43.7" cy="488.1" r="0.85" opacity="0.6"/><circle cx="1428.4" cy="924.6" r="0.88" opacity="0.33"/><circle cx="712.2" cy="911.7" r="0.57" opacity="0.87"/><circle cx="1031.3" cy="170.5" r="0.74" opacity="0.64"/><circle cx="1858" cy="213.7" r="1.44" opacity="0.26"/><circle cx="15.2" cy="308" r="0.6" opacity="0.3"/><circle cx="116.7" cy="860.5" r="1.2" opacity="0.29"/><circle cx="1281.4" cy="3.1" r="0.52" opacity="0.7"/><circle cx="1340.4" cy="39.1" r="0.63" opacity="0.83"/><circle cx="986.5" cy="189.9" r="1.03" opacity="0.47"/><circle cx="772.6" cy="145.6" r="0.5" opacity="0.21"/><circle cx="783.5" cy="772.2" r="0.67" opacity="0.21"/><circle cx="374.4" cy="509.4" r="0.54" opacity="0.23"/><circle cx="745.4" cy="378.5" r="0.5" opacity="0.63"/><circle cx="1517.7" cy="560.6" r="1.03" opacity="0.57"/><circle cx="1309.5" cy="24" r="2.48" opacity="0.5"/><circle cx="181.1" cy="19.1" r="1.29" opacity="0.76"/><circle cx="909" cy="33" r="0.99" opacity="0.77"/><circle cx="211.6" cy="656.3" r="0.5" opacity="0.19"/><circle cx="1686.2" cy="607.9" r="1.07" opacity="0.2"/><circle cx="1368.9" cy="650.2" r="2.11" opacity="0.36"/><circle cx="1818.4" cy="964.9" r="1.45" opacity="0.65"/><circle cx="1416.3" cy="45.4" r="0.71" opacity="0.49"/><circle cx="199.9" cy="116.6" r="1.82" opacity="0.63"/><circle cx="1332.2" cy="12.7" r="1.19" opacity="0.69"/><circle cx="1572" cy="3.2" r="1.97" opacity="0.27"/><circle cx="123.6" cy="524.5" r="0.51" opacity="0.22"/><circle cx="1231" cy="425.3" r="1.81" opacity="0.52"/><circle cx="1586.7" cy="368.6" r="1.83" opacity="0.72"/><circle cx="1187" cy="215.4" r="1.13" opacity="0.56"/><circle cx="1688.6" cy="0.3" r="1.09" opacity="0.39"/><circle cx="1232.5" cy="743.3" r="0.5" opacity="0.82"/><circle cx="970.8" cy="3.6" r="0.6" opacity="0.43"/><circle cx="1484.9" cy="892.6" r="0.68" opacity="0.61"/><circle cx="786.3" cy="294.2" r="0.51" opacity="0.54"/><circle cx="1349.9" cy="859.6" r="0.77" opacity="0.53"/><circle cx="1858.1" cy="155.7" r="0.58" opacity="0.48"/><circle cx="163.9" cy="554.8" r="2.65" opacity="0.72"/><circle cx="522.4" cy="630.6" r="0.55" opacity="0.48"/><circle cx="1084.9" cy="19.6" r="0.96" opacity="0.55"/><circle cx="1498.7" cy="458.1" r="0.84" opacity="0.33"/><circle cx="1172.7" cy="264.1" r="2.46" opacity="0.38"/><circle cx="1843.2" cy="103" r="0.92" opacity="0.29"/><circle cx="1570" cy="11.1" r="2.15" opacity="0.6"/><circle cx="439.5" cy="94.9" r="1.39" opacity="0.55"/><circle cx="1126.1" cy="963.5" r="0.9" opacity="0.57"/><circle cx="842.3" cy="405" r="0.9" opacity="0.76"/><circle cx="1694.5" cy="919.1" r="0.72" opacity="0.43"/><circle cx="1786.9" cy="15.5" r="0.5" opacity="0.42"/><circle cx="1447.4" cy="107.1" r="0.65" opacity="0.38"/><circle cx="1100.4" cy="60.7" r="0.74" opacity="0.78"/><circle cx="1771.3" cy="744.9" r="2.85" opacity="0.27"/><circle cx="1422.1" cy="490.8" r="2.29" opacity="0.79"/><circle cx="1864.2" cy="361.1" r="0.5" opacity="0.65"/><circle cx="1389.8" cy="359.6" r="0.63" opacity="0.37"/><circle cx="867.7" cy="165" r="0.69" opacity="0.5"/><circle cx="134.7" cy="457.9" r="2.84" opacity="0.62"/><circle cx="595" cy="731.2" r="1.49" opacity="0.45"/><circle cx="368.3" cy="438.5" r="2.54" opacity="0.59"/><circle cx="1604.2" cy="38.3" r="0.5" opacity="0.23"/><circle cx="456.9" cy="125.7" r="1.35" opacity="0.5"/><circle cx="1453.6" cy="7.7" r="0.57" opacity="0.21"/><circle cx="71" cy="201.2" r="1.47" opacity="0.51"/><circle cx="517.4" cy="744.2" r="1.88" opacity="0.23"/><circle cx="41.5" cy="836.5" r="0.52" opacity="0.52"/><circle cx="263.6" cy="491.7" r="1.22" opacity="0.82"/><circle cx="626.2" cy="905.6" r="0.66" opacity="0.83"/><circle cx="1045.9" cy="132.3" r="0.7" opacity="0.55"/><circle cx="1066.4" cy="791.6" r="2.6" opacity="0.46"/><circle cx="481.5" cy="4.4" r="1.25" opacity="0.78"/><circle cx="23.3" cy="123.7" r="0.68" opacity="0.66"/><circle cx="65.3" cy="868.6" r="0.5" opacity="0.37"/><circle cx="1188" cy="167.9" r="0.66" opacity="0.5"/><circle cx="1212.8" cy="292.2" r="0.5" opacity="0.2"/><circle cx="125" cy="2.3" r="1.14" opacity="0.57"/><circle cx="1685.1" cy="4.7" r="1.58" opacity="0.39"/><circle cx="950.5" cy="443.2" r="1.15" opacity="0.34"/><circle cx="1593.6" cy="239.4" r="1.82" opacity="0.41"/><circle cx="447.4" cy="157.1" r="0.51" opacity="0.49"/><circle cx="592.5" cy="5.4" r="2.43" opacity="0.86"/><circle cx="1103.8" cy="659.6" r="1.67" opacity="0.7"/><circle cx="385.6" cy="406.3" r="0.55" opacity="0.8"/><circle cx="883.6" cy="583.5" r="0.5" opacity="0.25"/><circle cx="1595.2" cy="18.1" r="0.52" opacity="0.21"/><circle cx="653" cy="985.9" r="0.55" opacity="0.43"/><circle cx="1885.1" cy="21.6" r="1.08" opacity="0.82"/><circle cx="1586.7" cy="439.7" r="1.05" opacity="0.85"/><circle cx="1435.5" cy="73.3" r="0.54" opacity="0.43"/><circle cx="829.1" cy="385.4" r="0.73" opacity="0.82"/><circle cx="1683.3" cy="560.1" r="0.51" opacity="0.73"/><circle cx="102.3" cy="132.2" r="0.5" opacity="0.24"/><circle cx="547.7" cy="573" r="1.53" opacity="0.46"/><circle cx="1118" cy="460.2" r="0.98" opacity="0.78"/><circle cx="905.2" cy="79.8" r="0.5" opacity="0.44"/><circle cx="1046.9" cy="194.5" r="0.89" opacity="0.63"/><circle cx="330.4" cy="345.5" r="0.77" opacity="0.42"/><circle cx="797.1" cy="152.5" r="0.5" opacity="0.23"/><circle cx="1440.7" cy="503.8" r="2.53" opacity="0.37"/><circle cx="645" cy="98.5" r="0.57" opacity="0.6"/><circle cx="830.2" cy="24.8" r="1.81" opacity="0.66"/><circle cx="496.8" cy="389.1" r="0.97" opacity="0.82"/><circle cx="780.7" cy="68.6" r="0.51" opacity="0.24"/><circle cx="1117.3" cy="244.9" r="0.69" opacity="0.89"/><circle cx="1466.8" cy="176.9" r="0.74" opacity="0.84"/><circle cx="1053" cy="37.6" r="1.57" opacity="0.72"/><circle cx="1901.7" cy="114.7" r="0.5" opacity="0.29"/><circle cx="1058" cy="9.7" r="1.75" opacity="0.38"/><circle cx="1281.6" cy="26.5" r="0.51" opacity="0.29"/><circle cx="549.4" cy="732.1" r="0.5" opacity="0.58"/><circle cx="406.9" cy="724.8" r="1.25" opacity="0.48"/><circle cx="1845.1" cy="312.2" r="0.52" opacity="0.39"/><circle cx="1162.1" cy="119.6" r="2.74" opacity="0.54"/><circle cx="573.9" cy="863.7" r="0.56" opacity="0.68"/><circle cx="277.3" cy="468.2" r="1" opacity="0.37"/><circle cx="1171.1" cy="309.3" r="0.53" opacity="0.73"/><circle cx="774.1" cy="809.9" r="1.25" opacity="0.85"/><circle cx="1660.6" cy="282.4" r="0.53" opacity="0.34"/><circle cx="779.1" cy="797.2" r="1.53" opacity="0.73"/><circle cx="1482.5" cy="747" r="0.62" opacity="0.73"/><circle cx="172.9" cy="513.3" r="0.52" opacity="0.49"/><circle cx="812.6" cy="21.6" r="1.9" opacity="0.51"/><circle cx="468.2" cy="80.2" r="0.82" opacity="0.56"/><circle cx="1814.4" cy="0.5" r="0.78" opacity="0.85"/><circle cx="1251.1" cy="280.1" r="0.5" opacity="0.71"/><circle cx="1180" cy="93.2" r="0.68" opacity="0.7"/><circle cx="1196.8" cy="704.6" r="0.53" opacity="0.21"/><circle cx="1219.6" cy="680.6" r="1.54" opacity="0.34"/><circle cx="319" cy="870.8" r="0.9" opacity="0.62"/><circle cx="1909.9" cy="361.9" r="2.67" opacity="0.52"/><circle cx="473.8" cy="574.3" r="0.56" opacity="0.66"/><circle cx="246.8" cy="213.6" r="2.31" opacity="0.51"/><circle cx="844.9" cy="748.1" r="0.5" opacity="0.55"/><circle cx="811.7" cy="5.6" r="2.07" opacity="0.63"/><circle cx="1547.8" cy="75.3" r="0.51" opacity="0.22"/><circle cx="1856.2" cy="649.3" r="0.83" opacity="0.37"/><circle cx="1145.9" cy="267.8" r="0.54" opacity="0.81"/><circle cx="451.1" cy="222.4" r="0.74" opacity="0.56"/><circle cx="168.6" cy="267.7" r="0.5" opacity="0.65"/><circle cx="94.9" cy="502.6" r="2.13" opacity="0.55"/><circle cx="1045.4" cy="63.7" r="2.25" opacity="0.49"/><circle cx="853.4" cy="574" r="0.92" opacity="0.84"/><circle cx="1068.5" cy="521.1" r="2.55" opacity="0.38"/><circle cx="1254.9" cy="235.8" r="0.53" opacity="0.35"/><circle cx="406.9" cy="689.7" r="0.52" opacity="0.8"/><circle cx="208.2" cy="453.2" r="0.9" opacity="0.48"/><circle cx="76.3" cy="980.1" r="0.88" opacity="0.44"/><circle cx="1287" cy="85.2" r="0.72" opacity="0.48"/><circle cx="214" cy="738.7" r="0.52" opacity="0.21"/><circle cx="1227.6" cy="673.7" r="1.66" opacity="0.25"/><circle cx="602" cy="209.6" r="1.19" opacity="0.81"/><circle cx="297.8" cy="105.8" r="0.5" opacity="0.19"/><circle cx="4.6" cy="494.6" r="0.97" opacity="0.49"/><circle cx="550" cy="551" r="0.73" opacity="0.25"/><circle cx="718.1" cy="387.1" r="0.59" opacity="0.34"/><circle cx="1713.7" cy="73" r="1.55" opacity="0.82"/><circle cx="1455.5" cy="393.5" r="0.51" opacity="0.42"/><circle cx="1100" cy="200.6" r="0.51" opacity="0.25"/><circle cx="1830.2" cy="923.2" r="1.95" opacity="0.83"/><circle cx="1460.5" cy="425.5" r="0.86" opacity="0.37"/><circle cx="1367.1" cy="766.5" r="0.72" opacity="0.52"/><circle cx="1588.4" cy="29.3" r="2.54" opacity="0.53"/><circle cx="422.7" cy="672" r="0.72" opacity="0.6"/><circle cx="507.6" cy="104.4" r="0.6" opacity="0.33"/><circle cx="672.7" cy="725.4" r="1.66" opacity="0.9"/><circle cx="418.2" cy="235.2" r="1.31" opacity="0.21"/><circle cx="66.4" cy="208.5" r="2.57" opacity="0.2"/><circle cx="1617.2" cy="432.3" r="0.52" opacity="0.82"/><circle cx="1751.4" cy="532.7" r="0.51" opacity="0.71"/><circle cx="683.6" cy="885.3" r="2.24" opacity="0.78"/><circle cx="491.1" cy="810.5" r="1.27" opacity="0.71"/><circle cx="284.3" cy="592.3" r="1.78" opacity="0.8"/><circle cx="1450.3" cy="8.6" r="0.96" opacity="0.35"/><circle cx="1013.7" cy="74.6" r="2.44" opacity="0.47"/><circle cx="1840" cy="2.5" r="0.85" opacity="0.39"/><circle cx="1529.7" cy="863.9" r="2.53" opacity="0.74"/><circle cx="1073" cy="432.9" r="0.52" opacity="0.69"/><circle cx="447.5" cy="427" r="0.96" opacity="0.51"/><circle cx="1819.7" cy="150" r="0.52" opacity="0.38"/><circle cx="837.3" cy="205.8" r="0.82" opacity="0.79"/><circle cx="33.3" cy="1.7" r="0.59" opacity="0.65"/><circle cx="735.2" cy="744.8" r="0.52" opacity="0.52"/><circle cx="20.6" cy="642.7" r="0.6" opacity="0.38"/><circle cx="1308.1" cy="919.1" r="0.52" opacity="0.79"/><circle cx="308.8" cy="624.3" r="0.5" opacity="0.54"/><circle cx="916.5" cy="526.8" r="2.36" opacity="0.22"/><circle cx="808.7" cy="390.6" r="1.25" opacity="0.52"/><circle cx="86.1" cy="358.9" r="0.55" opacity="0.35"/><circle cx="496.8" cy="753.2" r="1.58" opacity="0.2"/><circle cx="1084.2" cy="493.1" r="0.59" opacity="0.83"/><circle cx="375.1" cy="4.1" r="0.5" opacity="0.48"/><circle cx="922.6" cy="464.5" r="1.14" opacity="0.19"/><circle cx="1604.2" cy="656.7" r="0.74" opacity="0.21"/><circle cx="879.7" cy="938.9" r="2" opacity="0.23"/><circle cx="1865.8" cy="934.5" r="0.5" opacity="0.54"/><circle cx="899.8" cy="940.3" r="2.59" opacity="0.45"/><circle cx="1865.7" cy="202.9" r="0.56" opacity="0.74"/><circle cx="1411.3" cy="774.9" r="0.52" opacity="0.75"/><circle cx="355.3" cy="525" r="0.5" opacity="0.3"/><circle cx="847.4" cy="294.9" r="1.93" opacity="0.71"/><circle cx="832.1" cy="388.6" r="0.81" opacity="0.6"/><circle cx="1063.3" cy="917.4" r="0.5" opacity="0.42"/><circle cx="314.5" cy="17.3" r="0.97" opacity="0.41"/><circle cx="1231.8" cy="166.4" r="1.51" opacity="0.88"/><circle cx="907.6" cy="232.8" r="0.69" opacity="0.68"/><circle cx="147.7" cy="259.5" r="1.45" opacity="0.28"/><circle cx="1622.6" cy="350.1" r="1.89" opacity="0.79"/><circle cx="1542.4" cy="13" r="1.09" opacity="0.84"/><circle cx="1563.1" cy="745.8" r="1.49" opacity="0.55"/><circle cx="243.9" cy="32.1" r="0.61" opacity="0.73"/><circle cx="891.7" cy="17.5" r="0.75" opacity="0.43"/><circle cx="683.6" cy="211.2" r="1.06" opacity="0.71"/><circle cx="58.5" cy="86.9" r="2.53" opacity="0.6"/><circle cx="151.5" cy="419.7" r="0.94" opacity="0.23"/><circle cx="842" cy="269.8" r="0.87" opacity="0.67"/><circle cx="72" cy="803" r="0.82" opacity="0.63"/><circle cx="768.4" cy="230.1" r="1.43" opacity="0.49"/><circle cx="1210.4" cy="237.2" r="1.03" opacity="0.23"/><circle cx="804.1" cy="958.3" r="0.74" opacity="0.63"/><circle cx="1113.1" cy="91.5" r="0.61" opacity="0.87"/><circle cx="483.2" cy="85.8" r="0.53" opacity="0.41"/><circle cx="1716" cy="761" r="2.12" opacity="0.24"/><circle cx="264.6" cy="759.7" r="0.62" opacity="0.65"/><circle cx="491" cy="77.3" r="2.56" opacity="0.39"/><circle cx="1264.8" cy="946.1" r="0.74" opacity="0.67"/><circle cx="1645.7" cy="631" r="0.55" opacity="0.72"/><circle cx="1221.2" cy="889.3" r="0.5" opacity="0.84"/><circle cx="1064" cy="250.6" r="0.5" opacity="0.89"/><circle cx="341.4" cy="860.7" r="0.88" opacity="0.28"/><circle cx="416.4" cy="867.3" r="0.71" opacity="0.75"/><circle cx="1759.2" cy="459.5" r="0.81" opacity="0.59"/><circle cx="98.6" cy="654.4" r="1.58" opacity="0.84"/><circle cx="1079.8" cy="868.8" r="0.91" opacity="0.83"/><circle cx="1601.8" cy="423" r="1.23" opacity="0.66"/><circle cx="313.2" cy="856.4" r="0.77" opacity="0.45"/><circle cx="1569" cy="401.7" r="0.5" opacity="0.87"/><circle cx="449.7" cy="591.6" r="0.56" opacity="0.33"/><circle cx="418" cy="62.8" r="0.99" opacity="0.26"/><circle cx="1647.9" cy="555.4" r="1.23" opacity="0.58"/><circle cx="307.1" cy="309.8" r="1.11" opacity="0.77"/><circle cx="1354.8" cy="989.5" r="0.5" opacity="0.63"/><circle cx="937.3" cy="221.8" r="1.06" opacity="0.68"/><circle cx="832.6" cy="559.9" r="0.97" opacity="0.5"/><circle cx="1258.5" cy="0.7" r="2.01" opacity="0.56"/><circle cx="1037.3" cy="539.9" r="1.73" opacity="0.54"/><circle cx="1844.2" cy="23.5" r="0.53" opacity="0.3"/><circle cx="797.7" cy="867.7" r="0.69" opacity="0.48"/><circle cx="271.1" cy="660.4" r="2.11" opacity="0.51"/><circle cx="533.2" cy="112.9" r="0.64" opacity="0.59"/><circle cx="951.3" cy="255.7" r="0.52" opacity="0.25"/><circle cx="325.6" cy="443.1" r="1.92" opacity="0.2"/><circle cx="236.7" cy="725.8" r="0.68" opacity="0.3"/><circle cx="753.6" cy="25.1" r="1.83" opacity="0.8"/><circle cx="87.6" cy="307.8" r="1.16" opacity="0.68"/><circle cx="467.9" cy="6.1" r="0.5" opacity="0.74"/><circle cx="863.8" cy="130.2" r="2.7" opacity="0.9"/><circle cx="1838.6" cy="279.1" r="0.83" opacity="0.69"/><circle cx="1434.8" cy="80" r="2.58" opacity="0.58"/><circle cx="1073.1" cy="583.8" r="0.5" opacity="0.67"/><circle cx="224.6" cy="74.7" r="0.82" opacity="0.68"/><circle cx="724.2" cy="629.7" r="1.53" opacity="0.56"/><circle cx="1905.9" cy="144.5" r="1.17" opacity="0.26"/><circle cx="993.4" cy="381.9" r="0.61" opacity="0.28"/><circle cx="961.3" cy="150.6" r="1.58" opacity="0.18"/><circle cx="1508" cy="0" r="2.5" opacity="0.52"/><circle cx="1732.7" cy="840" r="0.79" opacity="0.67"/><circle cx="1368.6" cy="4.4" r="0.55" opacity="0.85"/><circle cx="936.7" cy="9.8" r="0.55" opacity="0.29"/><circle cx="250.4" cy="208.1" r="0.95" opacity="0.24"/><circle cx="1573.7" cy="17.2" r="2.04" opacity="0.68"/><circle cx="1433.5" cy="709.2" r="0.98" opacity="0.8"/><circle cx="1904.4" cy="111.8" r="0.51" opacity="0.44"/><circle cx="1584.9" cy="96.5" r="0.5" opacity="0.32"/><circle cx="101.1" cy="597.4" r="1.12" opacity="0.39"/><circle cx="1640.2" cy="155.4" r="2.64" opacity="0.19"/><circle cx="1888.5" cy="52.7" r="1.37" opacity="0.6"/><circle cx="1454.4" cy="37.1" r="1.33" opacity="0.72"/><circle cx="1610.8" cy="348.7" r="0.51" opacity="0.59"/><circle cx="657.1" cy="394.3" r="0.58" opacity="0.33"/><circle cx="1522.5" cy="400.1" r="0.83" opacity="0.31"/><circle cx="991.5" cy="26.8" r="1.17" opacity="0.23"/><circle cx="763.2" cy="454.3" r="0.55" opacity="0.45"/><circle cx="742.8" cy="437.5" r="0.51" opacity="0.62"/><circle cx="1837.7" cy="597.7" r="2.35" opacity="0.58"/><circle cx="1125.5" cy="293.9" r="1.44" opacity="0.6"/><circle cx="231.7" cy="4.2" r="0.53" opacity="0.48"/><circle cx="391.9" cy="233" r="0.65" opacity="0.4"/><circle cx="1550.5" cy="44.6" r="0.63" opacity="0.46"/><circle cx="944.4" cy="751" r="0.64" opacity="0.67"/><circle cx="1585" cy="46.3" r="0.52" opacity="0.65"/><circle cx="1636.4" cy="464.3" r="0.57" opacity="0.28"/><circle cx="982.7" cy="234.4" r="1.67" opacity="0.88"/><circle cx="507.4" cy="478.9" r="1.04" opacity="0.21"/><circle cx="1743.3" cy="857.8" r="0.88" opacity="0.25"/><circle cx="638.8" cy="357.1" r="0.53" opacity="0.29"/><circle cx="1691.3" cy="3.6" r="1.35" opacity="0.83"/><circle cx="305.8" cy="74.3" r="0.51" opacity="0.25"/><circle cx="1135.8" cy="177.7" r="0.66" opacity="0.44"/><circle cx="1156.2" cy="50.1" r="1.24" opacity="0.25"/><circle cx="1323.8" cy="491" r="1.82" opacity="0.42"/><circle cx="568.8" cy="751.6" r="1.73" opacity="0.77"/><circle cx="1066.3" cy="469.5" r="0.51" opacity="0.89"/><circle cx="1112.4" cy="137.9" r="2.06" opacity="0.62"/><circle cx="1701.3" cy="383.4" r="1.26" opacity="0.56"/><circle cx="1108" cy="888.5" r="1.01" opacity="0.55"/><circle cx="817.6" cy="667.8" r="1.84" opacity="0.57"/><circle cx="1114.9" cy="107.4" r="2.53" opacity="0.44"/><circle cx="1911.2" cy="155.1" r="0.53" opacity="0.28"/><circle cx="504.3" cy="5.5" r="0.54" opacity="0.8"/><circle cx="15" cy="63.5" r="0.62" opacity="0.51"/><circle cx="1068.7" cy="368" r="2.54" opacity="0.29"/><circle cx="393.7" cy="3.7" r="2.06" opacity="0.5"/><circle cx="921.2" cy="611.9" r="0.63" opacity="0.65"/><circle cx="1128.6" cy="233.2" r="0.51" opacity="0.79"/><circle cx="305.4" cy="222.3" r="1.15" opacity="0.7"/><circle cx="75.4" cy="1" r="0.57" opacity="0.86"/><circle cx="1361" cy="988.1" r="2.12" opacity="0.89"/><circle cx="590.5" cy="214.6" r="0.71" opacity="0.77"/><circle cx="435.8" cy="290.9" r="1.85" opacity="0.64"/><circle cx="773.9" cy="789.5" r="2.84" opacity="0.68"/><circle cx="782.7" cy="237.8" r="0.51" opacity="0.6"/><circle cx="1204" cy="308" r="1.7" opacity="0.43"/><circle cx="302.3" cy="526" r="1.98" opacity="0.61"/><circle cx="514.6" cy="532.7" r="0.66" opacity="0.76"/><circle cx="619.5" cy="281.7" r="0.56" opacity="0.75"/><circle cx="1220.3" cy="823.9" r="0.51" opacity="0.24"/><circle cx="223.6" cy="67.3" r="0.53" opacity="0.33"/><circle cx="25.8" cy="121.4" r="1.8" opacity="0.46"/><circle cx="1330.2" cy="49.2" r="0.5" opacity="0.52"/><circle cx="1788.9" cy="545.9" r="0.58" opacity="0.86"/><circle cx="411" cy="9.7" r="2.2" opacity="0.66"/><circle cx="995.2" cy="578.7" r="0.57" opacity="0.78"/><circle cx="461.5" cy="220.1" r="0.54" opacity="0.51"/><circle cx="1627.3" cy="426.6" r="0.87" opacity="0.5"/><circle cx="984.8" cy="91.2" r="0.52" opacity="0.51"/><circle cx="738.9" cy="31.2" r="0.77" opacity="0.55"/><circle cx="760.5" cy="0.6" r="1.92" opacity="0.33"/><circle cx="1121.4" cy="80.1" r="0.54" opacity="0.8"/><circle cx="1316.8" cy="1.4" r="2.47" opacity="0.78"/><circle cx="222.2" cy="106.2" r="2.52" opacity="0.52"/><circle cx="1746" cy="7.9" r="0.58" opacity="0.29"/><circle cx="423" cy="108.6" r="0.5" opacity="0.29"/><circle cx="490.7" cy="927.8" r="0.52" opacity="0.59"/><circle cx="1086.4" cy="258.2" r="0.51" opacity="0.25"/><circle cx="838.6" cy="180.9" r="1.97" opacity="0.88"/><circle cx="1806.3" cy="247.9" r="0.79" opacity="0.88"/><circle cx="380.9" cy="740" r="0.52" opacity="0.34"/><circle cx="845.3" cy="48.8" r="1.58" opacity="0.51"/><circle cx="729.6" cy="295.8" r="0.51" opacity="0.27"/><circle cx="899.2" cy="216.2" r="0.78" opacity="0.58"/><circle cx="1711.8" cy="202.2" r="2.47" opacity="0.51"/><circle cx="629.5" cy="803.4" r="1.64" opacity="0.5"/><circle cx="1770.4" cy="358.6" r="0.51" opacity="0.42"/><circle cx="1278.7" cy="442.3" r="0.82" opacity="0.75"/><circle cx="1394.6" cy="159" r="2.58" opacity="0.63"/><circle cx="214" cy="661.1" r="1.91" opacity="0.63"/><circle cx="1559.6" cy="222" r="0.51" opacity="0.57"/><circle cx="1059.4" cy="264" r="1.42" opacity="0.41"/><circle cx="101.6" cy="258.6" r="1.09" opacity="0.58"/><circle cx="752.1" cy="935" r="1.06" opacity="0.7"/><circle cx="278.3" cy="111.9" r="1.62" opacity="0.45"/><circle cx="160.7" cy="2.7" r="1.65" opacity="0.81"/><circle cx="1867.5" cy="973.4" r="1.31" opacity="0.31"/><circle cx="508.1" cy="321.3" r="0.59" opacity="0.65"/><circle cx="716.9" cy="113.9" r="1.38" opacity="0.9"/><circle cx="1627.7" cy="874.7" r="0.51" opacity="0.49"/><circle cx="1316.2" cy="181.3" r="0.5" opacity="0.88"/><circle cx="426" cy="510.8" r="0.54" opacity="0.88"/><circle cx="189.2" cy="723" r="0.73" opacity="0.41"/><circle cx="1289.7" cy="506.6" r="0.5" opacity="0.33"/></g>
  <g fill="#fdf6e3" filter="url(#bloom)"><circle cx="111.3" cy="663.1" r="2.75" opacity="0.95"/><circle cx="1051.7" cy="317.3" r="2.64" opacity="0.95"/><circle cx="1699" cy="102.9" r="2.32" opacity="0.95"/><circle cx="644.6" cy="449.5" r="2.48" opacity="0.95"/><circle cx="24.2" cy="445.4" r="1.89" opacity="0.95"/><circle cx="269.5" cy="201.8" r="1.81" opacity="0.95"/><circle cx="1305.6" cy="398.1" r="1.68" opacity="0.95"/><circle cx="1188.3" cy="68.5" r="2.69" opacity="0.95"/><circle cx="1279.6" cy="722.7" r="1.73" opacity="0.95"/><circle cx="924.2" cy="546.1" r="2.2" opacity="0.95"/><circle cx="971.3" cy="87.9" r="2.53" opacity="0.95"/><circle cx="796.1" cy="341.1" r="2.66" opacity="0.95"/><circle cx="1827.3" cy="389.4" r="2" opacity="0.95"/><circle cx="1682.6" cy="13.4" r="2.56" opacity="0.95"/></g>
  <g fill="#ffffff"><circle cx="111.3" cy="663.1" r="2.75" opacity="0.95"/><circle cx="1051.7" cy="317.3" r="2.64" opacity="0.95"/><circle cx="1699" cy="102.9" r="2.32" opacity="0.95"/><circle cx="644.6" cy="449.5" r="2.48" opacity="0.95"/><circle cx="24.2" cy="445.4" r="1.89" opacity="0.95"/><circle cx="269.5" cy="201.8" r="1.81" opacity="0.95"/><circle cx="1305.6" cy="398.1" r="1.68" opacity="0.95"/><circle cx="1188.3" cy="68.5" r="2.69" opacity="0.95"/><circle cx="1279.6" cy="722.7" r="1.73" opacity="0.95"/><circle cx="924.2" cy="546.1" r="2.2" opacity="0.95"/><circle cx="971.3" cy="87.9" r="2.53" opacity="0.95"/><circle cx="796.1" cy="341.1" r="2.66" opacity="0.95"/><circle cx="1827.3" cy="389.4" r="2" opacity="0.95"/><circle cx="1682.6" cy="13.4" r="2.56" opacity="0.95"/></g>

  <rect width="1920" height="1080" fill="url(#moon)"/>
  <rect width="1920" height="1080" fill="url(#horizon)"/>
</svg>
