<svg xmlns="http://www.w3.org/2000/svg" xmlns:xlink="http://www.w3.org/1999/xlink" viewBox="0 0 4000 2250" width="4000" height="2250" preserveAspectRatio="xMidYMid slice"><defs><clipPath id="B"><path d="M1791 671h2209v661H1791zm0 0" class="B"/></clipPath><clipPath id="C"><path d="M4000 747.48c-.488-.102-.969-.219-1.43-.391-5.07-1.789-11.66-4.57-16.039-7.512-4.422-2.969-10.121-7.59-13.41-11.469-2.262-2.66-3.73-6.398-4.93-9.621-2.973-7.898-.961-15.227-5.371-23.117-2.301-4.133-4.871-6.512-9.492-9.402-4.719-2.937-8.918-5.141-13.027-8.617-2.52-2.141-4.609-5.133-7.832-5.371-2.297-.172-7.539 2.578-9.687 3.371-4.641 1.727-8.66 4.258-12.91 6.52-5.512 2.93-10.91 5.828-16.27 8.988-6.25 3.699-10.07 8.121-17.371 10.961-13.531 5.27-23.871 15.051-37.27 20.691-17.359 7.297-32.43 17.93-48.781 26.809-17.84 9.691-39.391 15.191-60.16 20.09-11.84 2.801-24.301 6.668-36.488 8.512-3.383.508-7.082 1.309-10.422 1.508-5.898.359-12.801-.84-18.758-1.191-3.703-.219-8.613.172-12.203-.637-3.367-.762-6.34-2.672-9.687-3.891-4.301-1.582-9.672-1.602-13.621-3.07-3.559-1.312-7.148-3.652-11.031-5.152-8.25-3.187-16.379-7.359-21.957-13.68-2.57-2.91-3.43-3.969-7.25-5.937-4.312-2.242-9.012-3.68-13.152-6.293-3.141-1.977-4.871-4.359-7.488-6.609-2.82-2.418-6.91-5.418-10.531-6.719-3.461-1.238-6.781-.891-10.051-2.73-4.289-2.41-9.867-7.371-8.527-11.711-1.711 3.363-5.602 6.473-9.473 8.051-4.109 1.68-8.82.813-12.91 1.59-4.57.871-5.609 3.781-8.937 6.32-3.352 2.559-6.043 5.09-9.172 7.719-4.078 3.434-10.309 5-14.937 7.73-5.391 3.18-10.531 7.063-15.703 10.551-3.82 2.582-7.141 5.059-11.809 6.699-3.379 1.191-7.488 1.133-10.75 2.293-2.082.738-3.262 2.508-5.191 3.148-1.469.48-3.598.078-5.258.359-2.93.48-5.891 2-8.801 2.641-12.738 2.75-26.109 6.078-37.832 11.32-7.406 3.328-13.539 4.859-22.43 4.641-11.078-.281-17.727-4.352-26.07-10.602-6.816-5.109-8.148-12.09-15.348-17.18-8.539-6.039-17.879-12.359-27.051-17.691-6.27-3.66-13.539-6.09-19.34-10.297-5.602-4.043-11.25-7.082-17.398-10.461-1.441-.801-3.602-1.66-4.84-2.832-.172-.16-1.902-3.238-2.5-3.598-2.461-1.441-11.07-.781-14.09-1.32-9.551-1.73-20.48-4.582-29.582-7.609-2.578-.859-4.16-2.812-6.641-3.461-8.738-2.289-12.367 4.539-18.641 7.66-3.59 1.789-9.5 4.988-12.547 7.578-.98.852-1.543 3-2.582 3.621-1.168.699-2.961-.191-4 .211-4.73 1.82-9.348 4.039-14.121 6.02-6.27 2.602-13.84 7.91-19.09 11.789-1.879 1.402-2.937 3.301-4.758 4.77-3.422 2.781-7.922 4.723-11.52 7.313-6.27 4.508-12.691 8.039-19.043 12.008-1.977 1.25-4.52 3.223-6.027 4.84-3.422 3.711-4.539 4.043-9.109 6.531-4.723 2.559-6.68 6.031-12.453 6.73-2.777.348-7.109.348-9.969.059-4.77-.488-10.09-3.039-14.129-5.648-4.441-2.871-7.723-6.352-12.422-8.949-6.02-3.352-12-5.512-18.75-7.902-3.52-1.25-7.34-2.668-11.051-3.437-2.738-.582-5.059-1.602-7.598-2.07-2.75-.52-6.121.41-8.961.297-3.531-.129-6.598-1.039-9.949-1.758-12.41-2.68-25.719.258-37.289-5.121-11.871-5.52-24.922-7.031-36.859-1.578-2.91 1.34-5.402 3.77-8.641 5.02-3.832 1.48-7.52 2.449-11.152 4.277-5.73 2.883-11.359 5.133-17.09 7.883-4.09 1.969-8.18 4.758-12.078 7.059-5.23 3.09-9.133 8.172-15.621 9.152-4.211.637-7.371-.582-11.301-1.672-3.23-.891-4.039-.961-7.879-1.27-3.859-.32-7.762-1.59-11.719-2.02-11.281-1.242-22.27-.562-33.711-.051-12.629.559-28.441-1.09-40.75 2.262-6.082 1.648-11.402 1.348-17.711 2.277-6.809 1-13.66 3.852-19.301 8.07-4.937 3.699-10.289 6.031-16.41 8.879-6.418 2.98-17.109 4.023-23.73 1.773-8.437-2.863-18.02-4.953-25.969-8.391-16.73-7.25-35.68-11.93-53.121-17.711-2.937-.969-6.066-1.102-9.316-2.082-3.32-.988-6.441-2.77-9.922-3.359-4.219-.719-8.52-.168-12.762-1.469-3.84-1.18-6.348-3.59-9.957-4.988-4.301-1.672-7.32.168-12.332 1.816-7.277 2.41-14.32 5.313-21.59 7.742-5.969 2-10.98 5.801-17.23 5.961-9.848.25-15.258-5.512-21.707-10.133-4.801-3.43-10.562-8.219-13.102-13.09-1.371-2.617-1.922-4.777-4.332-6.949-3.066-2.758-6.879-2.809-10.75-4.758-4.457-2.262-9.359-3.383-13.758-5.781-4.461-2.449-8.449-5.371-14.84-3.652-5.41 1.453-12.5 8.922-15.961 12.512-6.801 7.07-13.988 15.129-21.449 21.891-4.48 4.07-9.551 5.891-14.531 8.09-9.84 4.359-20.527 8.918-29.59 13.969-6.789 3.77-13.949 5.973-20.559 10.699-4.84 3.473-10.23 5.48-15.301 8.59-4.469 2.742-8.672 4.773-14.078 5.48-12.672 1.66-26.043 3.25-38.711 3.973-4.09.238-7.48-.812-11.492-.73-2.418.051-5.437 1.148-7.867 1.027-3.383-.156-6.98-.578-10.262-.898-4.621-.449-7.09-.84-12.219-.23-2.641.313-6.031 1.129-8.621 1.039-5.262-.18-9.398-.797-14.988-.129l-10.32 1.172c-5.73.66-12.133 2.238-16.961.738-4.68-1.441-7.922-4.371-12.652-5.879-5.227-1.652-10.129-2.992-15.5-4.332-9.539-2.379-18.18-6.32-28.109-7.777-2.488-.359-1.391-.832-4.719-.68-1.43.07-2.961.738-4.379.738-4.43.922-113.922 143.469-117.5 141.102-6.191-2.48-13.473-3.461-19.672-5.902-5.621-2.219-8.48-5.039-12.52-8.379-4.629-3.832-15.41-5.172-22.539-5.391-3.07-.09-7.812-1.148-10.949-.359-4.02 1.012-4.25 3.262-5.961 5.82-3.48 5.258-9.449 8.98-13.832 14.129-3.09 3.629-3.109 6.48-4.687 10.219-.922 2.203-2.641 3.563-3.883 5.5-3.238 5.082-5.227 9.934-10.93 14.23-4.969 3.75-11.117 6.203-16.277 9.66-4.18 2.813-8.141 5.77-12.242 8.609-3.758 2.82-27.051 90.16-29.02 89.723v255.66H4000zm0 0" class="B"/></clipPath><clipPath id="D"><path d="M4000 747.48c-.488-.102-.969-.219-1.43-.391-5.07-1.789-11.66-4.57-16.039-7.512-4.422-2.969-10.121-7.59-13.41-11.469-2.262-2.66-3.73-6.398-4.93-9.621-2.973-7.898-.961-15.227-5.371-23.117-2.301-4.133-4.871-6.512-9.492-9.402-4.719-2.937-8.918-5.141-13.027-8.617-2.52-2.141-4.609-5.133-7.832-5.371-2.297-.172-7.539 2.578-9.687 3.371-4.641 1.727-8.66 4.258-12.91 6.52-5.512 2.93-10.91 5.828-16.27 8.988-6.25 3.699-10.07 8.121-17.371 10.961-13.531 5.27-23.871 15.051-37.27 20.691-17.359 7.297-32.43 17.93-48.781 26.809-17.84 9.691-39.391 15.191-60.16 20.09-11.84 2.801-24.301 6.668-36.488 8.512-3.383.508-7.082 1.309-10.422 1.508-5.898.359-12.801-.84-18.758-1.191-3.703-.219-8.613.172-12.203-.637-3.367-.762-6.34-2.672-9.687-3.891-4.301-1.582-9.672-1.602-13.621-3.07-3.559-1.312-7.148-3.652-11.031-5.152-8.25-3.187-16.379-7.359-21.957-13.68-2.57-2.91-3.43-3.969-7.25-5.937-4.312-2.242-9.012-3.68-13.152-6.293-3.141-1.977-4.871-4.359-7.488-6.609-2.82-2.418-6.91-5.418-10.531-6.719-3.461-1.238-6.781-.891-10.051-2.73-4.289-2.41-9.867-7.371-8.527-11.711-1.711 3.363-5.602 6.473-9.473 8.051-4.109 1.68-8.82.813-12.91 1.59-4.57.871-5.609 3.781-8.937 6.32-3.352 2.559-6.043 5.09-9.172 7.719-4.078 3.434-10.309 5-14.937 7.73-5.391 3.18-10.531 7.063-15.703 10.551-3.82 2.582-7.141 5.059-11.809 6.699-3.379 1.191-7.488 1.133-10.75 2.293-2.082.738-3.262 2.508-5.191 3.148-1.469.48-3.598.078-5.258.359-2.93.48-5.891 2-8.801 2.641-12.738 2.75-26.109 6.078-37.832 11.32-7.406 3.328-13.539 4.859-22.43 4.641-11.078-.281-17.727-4.352-26.07-10.602-6.816-5.109-8.148-12.09-15.348-17.18-8.539-6.039-17.879-12.359-27.051-17.691-6.27-3.66-13.539-6.09-19.34-10.297-5.602-4.043-11.25-7.082-17.398-10.461-1.441-.801-3.602-1.66-4.84-2.832-.172-.16-1.902-3.238-2.5-3.598-2.461-1.441-11.07-.781-14.09-1.32-9.551-1.73-20.48-4.582-29.582-7.609-2.578-.859-4.16-2.812-6.641-3.461-8.738-2.289-12.367 4.539-18.641 7.66-3.59 1.789-9.5 4.988-12.547 7.578-.98.852-1.543 3-2.582 3.621-1.168.699-2.961-.191-4 .211-4.73 1.82-9.348 4.039-14.121 6.02-6.27 2.602-13.84 7.91-19.09 11.789-1.879 1.402-2.937 3.301-4.758 4.77-3.422 2.781-7.922 4.723-11.52 7.313-6.27 4.508-12.691 8.039-19.043 12.008-1.977 1.25-4.52 3.223-6.027 4.84-3.422 3.711-4.539 4.043-9.109 6.531-4.723 2.559-6.68 6.031-12.453 6.73-2.777.348-7.109.348-9.969.059-4.77-.488-10.09-3.039-14.129-5.648-4.441-2.871-7.723-6.352-12.422-8.949-6.02-3.352-12-5.512-18.75-7.902-3.52-1.25-7.34-2.668-11.051-3.437-2.738-.582-5.059-1.602-7.598-2.07-2.75-.52-6.121.41-8.961.297-3.531-.129-6.598-1.039-9.949-1.758-12.41-2.68-25.719.258-37.289-5.121-11.871-5.52-24.922-7.031-36.859-1.578-2.91 1.34-5.402 3.77-8.641 5.02-3.832 1.48-7.52 2.449-11.152 4.277-5.73 2.883-11.359 5.133-17.09 7.883-4.09 1.969-8.18 4.758-12.078 7.059-5.23 3.09-9.133 8.172-15.621 9.152-4.211.637-7.371-.582-11.301-1.672-3.23-.891-4.039-.961-7.879-1.27-3.859-.32-7.762-1.59-11.719-2.02-11.281-1.242-22.27-.562-33.711-.051-12.629.559-28.441-1.09-40.75 2.262-6.082 1.648-11.402 1.348-17.711 2.277-6.809 1-13.66 3.852-19.301 8.07-4.937 3.699-10.289 6.031-16.41 8.879-6.418 2.98-17.109 4.023-23.73 1.773-8.437-2.863-18.02-4.953-25.969-8.391-16.73-7.25-35.68-11.93-53.121-17.711-2.937-.969-6.066-1.102-9.316-2.082-3.32-.988-6.441-2.77-9.922-3.359-4.219-.719-8.52-.168-12.762-1.469-3.84-1.18-6.348-3.59-9.957-4.988-4.301-1.672-7.32.168-12.332 1.816-7.277 2.41-14.32 5.313-21.59 7.742-5.969 2-10.98 5.801-17.23 5.961-9.848.25-15.258-5.512-21.707-10.133-4.801-3.43-10.562-8.219-13.102-13.09-1.371-2.617-1.922-4.777-4.332-6.949-3.066-2.758-6.879-2.809-10.75-4.758-4.457-2.262-9.359-3.383-13.758-5.781-4.461-2.449-8.449-5.371-14.84-3.652-5.41 1.453-12.5 8.922-15.961 12.512-6.801 7.07-13.988 15.129-21.449 21.891-4.48 4.07-9.551 5.891-14.531 8.09-9.84 4.359-20.527 8.918-29.59 13.969-6.789 3.77-13.949 5.973-20.559 10.699-4.84 3.473-10.23 5.48-15.301 8.59-4.469 2.742-8.672 4.773-14.078 5.48-12.672 1.66-26.043 3.25-38.711 3.973-4.09.238-7.48-.812-11.492-.73-2.418.051-5.437 1.148-7.867 1.027-3.383-.156-6.98-.578-10.262-.898-4.621-.449-7.09-.84-12.219-.23-2.641.313-6.031 1.129-8.621 1.039-5.262-.18-9.398-.797-14.988-.129l-10.32 1.172c-5.73.66-12.133 2.238-16.961.738-4.68-1.441-7.922-4.371-12.652-5.879-5.227-1.652-10.129-2.992-15.5-4.332-9.539-2.379-18.18-6.32-28.109-7.777-2.488-.359-1.391-.832-4.719-.68-1.43.07-2.961.738-4.379.738-4.43.922-113.922 143.469-117.5 141.102-6.191-2.48-13.473-3.461-19.672-5.902-5.621-2.219-8.48-5.039-12.52-8.379-4.629-3.832-15.41-5.172-22.539-5.391-3.07-.09-7.812-1.148-10.949-.359-4.02 1.012-4.25 3.262-5.961 5.82-3.48 5.258-9.449 8.98-13.832 14.129-3.09 3.629-3.109 6.48-4.687 10.219-.922 2.203-2.641 3.563-3.883 5.5-3.238 5.082-5.227 9.934-10.93 14.23-4.969 3.75-11.117 6.203-16.277 9.66-4.18 2.813-8.141 5.77-12.242 8.609-3.758 2.82-27.051 90.16-29.02 89.723v255.66H4000V747.48" class="B"/></clipPath><linearGradient id="E" x1="2895.93" y1="1331.46" x2="2895.93" y2="671.81" href="#k"><stop offset="0" stop-color="rgb(14.117647%, 20.392157%, 31.764706%)"/><stop offset=".008" stop-color="rgb(14.117647%, 20.392157%, 31.764706%)"/><stop offset=".016" stop-color="rgb(14.509804%, 20.392157%, 32.156863%)"/><stop offset=".023" stop-color="rgb(14.509804%, 20.392157%, 32.156863%)"/><stop offset=".031" stop-color="rgb(14.509804%, 20.784314%, 32.156863%)"/><stop offset=".039" stop-color="rgb(14.509804%, 20.784314%, 32.54902%)"/><stop offset=".047" stop-color="rgb(14.901961%, 20.784314%, 32.54902%)"/><stop offset=".055" stop-color="rgb(14.901961%, 20.784314%, 32.54902%)"/><stop offset=".063" stop-color="rgb(14.901961%, 21.176471%, 32.941176%)"/><stop offset=".07" stop-color="rgb(14.901961%, 21.176471%, 32.941176%)"/><stop offset=".078" stop-color="rgb(14.901961%, 21.176471%, 33.333333%)"/><stop offset=".086" stop-color="rgb(15.294118%, 21.568627%, 33.333333%)"/><stop offset=".094" stop-color="rgb(15.294118%, 21.568627%, 33.333333%)"/><stop offset=".102" stop-color="rgb(15.294118%, 21.568627%, 33.72549%)"/><stop offset=".109" stop-color="rgb(15.294118%, 21.568627%, 33.72549%)"/><stop offset=".117" stop-color="rgb(15.686275%, 21.960784%, 33.72549%)"/><stop offset=".125" stop-color="rgb(15.686275%, 21.960784%, 34.117647%)"/><stop offset=".133" stop-color="rgb(15.686275%, 21.960784%, 34.117647%)"/><stop offset=".141" stop-color="rgb(15.686275%, 21.960784%, 34.117647%)"/><stop offset=".148" stop-color="rgb(15.686275%, 22.352941%, 34.509804%)"/><stop offset=".156" stop-color="rgb(16.078431%, 22.352941%, 34.509804%)"/><stop offset=".164" stop-color="rgb(16.078431%, 22.352941%, 34.901961%)"/><stop offset=".172" stop-color="rgb(16.078431%, 22.352941%, 34.901961%)"/><stop offset=".18" stop-color="rgb(16.078431%, 22.745098%, 34.901961%)"/><stop offset=".188" stop-color="rgb(16.470588%, 22.745098%, 35.294118%)"/><stop offset=".195" stop-color="rgb(16.470588%, 22.745098%, 35.294118%)"/><stop offset=".203" stop-color="rgb(16.470588%, 23.137255%, 35.294118%)"/><stop offset=".211" stop-color="rgb(16.470588%, 23.137255%, 35.686275%)"/><stop offset=".219" stop-color="rgb(16.862745%, 23.137255%, 35.686275%)"/><stop offset=".227" stop-color="rgb(16.862745%, 23.137255%, 35.686275%)"/><stop offset=".234" stop-color="rgb(16.862745%, 23.529412%, 36.078431%)"/><stop offset=".242" stop-color="rgb(16.862745%, 23.529412%, 36.078431%)"/><stop offset=".25" stop-color="rgb(16.862745%, 23.529412%, 36.078431%)"/><stop offset=".258" stop-color="rgb(17.254902%, 23.529412%, 36.470588%)"/><stop offset=".266" stop-color="rgb(17.254902%, 23.921569%, 36.470588%)"/><stop offset=".273" stop-color="rgb(17.254902%, 23.921569%, 36.862745%)"/><stop offset=".281" stop-color="rgb(17.254902%, 23.921569%, 36.862745%)"/><stop offset=".289" stop-color="rgb(17.647059%, 23.921569%, 36.862745%)"/><stop offset=".297" stop-color="rgb(17.647059%, 24.313725%, 37.254902%)"/><stop offset=".305" stop-color="rgb(17.647059%, 24.313725%, 37.254902%)"/><stop offset=".313" stop-color="rgb(17.647059%, 24.313725%, 37.254902%)"/><stop offset=".32" stop-color="rgb(18.039216%, 24.705882%, 37.647059%)"/><stop offset=".328" stop-color="rgb(18.039216%, 24.705882%, 37.647059%)"/><stop offset=".336" stop-color="rgb(18.039216%, 24.705882%, 37.647059%)"/><stop offset=".344" stop-color="rgb(18.039216%, 25.098039%, 37.647059%)"/><stop offset=".352" stop-color="rgb(18.431373%, 25.098039%, 38.039216%)"/><stop offset=".359" stop-color="rgb(18.431373%, 25.098039%, 38.039216%)"/><stop offset=".367" stop-color="rgb(18.431373%, 25.098039%, 38.039216%)"/><stop offset=".375" stop-color="rgb(18.823529%, 25.490196%, 38.431373%)"/><stop offset=".383" stop-color="rgb(18.823529%, 25.490196%, 38.431373%)"/><stop offset=".391" stop-color="rgb(18.823529%, 25.490196%, 38.431373%)"/><stop offset=".398" stop-color="rgb(19.215686%, 25.882353%, 38.823529%)"/><stop offset=".406" stop-color="rgb(19.215686%, 25.882353%, 38.823529%)"/><stop offset=".414" stop-color="rgb(19.215686%, 25.882353%, 38.823529%)"/><stop offset=".422" stop-color="rgb(19.215686%, 26.27451%, 38.823529%)"/><stop offset=".43" stop-color="rgb(19.607843%, 26.27451%, 39.215686%)"/><stop offset=".438" stop-color="rgb(19.607843%, 26.27451%, 39.215686%)"/><stop offset=".445" stop-color="rgb(19.607843%, 26.27451%, 39.215686%)"/><stop offset=".453" stop-color="rgb(20%, 26.666667%, 39.607843%)"/><stop offset=".461" stop-color="rgb(20%, 26.666667%, 39.607843%)"/><stop offset=".469" stop-color="rgb(20%, 26.666667%, 39.607843%)"/><stop offset=".477" stop-color="rgb(20%, 27.058824%, 39.607843%)"/><stop offset=".484" stop-color="rgb(20.392157%, 27.058824%, 40%)"/><stop offset=".492" stop-color="rgb(20.392157%, 27.058824%, 40%)"/><stop offset=".5" stop-color="rgb(20.392157%, 27.45098%, 40%)"/><stop offset=".508" stop-color="rgb(20.784314%, 27.45098%, 40.392157%)"/><stop offset=".516" stop-color="rgb(20.784314%, 27.45098%, 40.392157%)"/><stop offset=".523" stop-color="rgb(20.784314%, 27.843137%, 40.392157%)"/><stop offset=".531" stop-color="rgb(20.784314%, 27.843137%, 40.392157%)"/><stop offset=".539" stop-color="rgb(21.176471%, 27.843137%, 40.784314%)"/><stop offset=".547" stop-color="rgb(21.176471%, 27.843137%, 40.784314%)"/><stop offset=".555" stop-color="rgb(21.176471%, 28.235294%, 40.784314%)"/><stop offset=".563" stop-color="rgb(21.568627%, 28.235294%, 41.176471%)"/><stop offset=".57" stop-color="rgb(21.568627%, 28.235294%, 41.176471%)"/><stop offset=".578" stop-color="rgb(21.568627%, 28.627451%, 41.176471%)"/><stop offset=".586" stop-color="rgb(21.960784%, 28.627451%, 41.568627%)"/><stop offset=".594" stop-color="rgb(21.960784%, 28.627451%, 41.568627%)"/><stop offset=".602" stop-color="rgb(21.960784%, 29.019608%, 41.568627%)"/><stop offset=".609" stop-color="rgb(21.960784%, 29.019608%, 41.568627%)"/><stop offset=".617" stop-color="rgb(22.352941%, 29.019608%, 41.960784%)"/><stop offset=".625" stop-color="rgb(22.352941%, 29.019608%, 41.960784%)"/><stop offset=".633" stop-color="rgb(22.352941%, 29.411765%, 41.960784%)"/><stop offset=".641" stop-color="rgb(22.745098%, 29.411765%, 42.352941%)"/><stop offset=".648" stop-color="rgb(22.745098%, 29.411765%, 42.352941%)"/><stop offset=".656" stop-color="rgb(22.745098%, 29.803922%, 42.352941%)"/><stop offset=".664" stop-color="rgb(22.745098%, 29.803922%, 42.352941%)"/><stop offset=".672" stop-color="rgb(23.137255%, 29.803922%, 42.745098%)"/><stop offset=".68" stop-color="rgb(23.137255%, 30.196078%, 42.745098%)"/><stop offset=".688" stop-color="rgb(23.137255%, 30.196078%, 42.745098%)"/><stop offset=".695" stop-color="rgb(23.529412%, 30.196078%, 43.137255%)"/><stop offset=".703" stop-color="rgb(23.529412%, 30.588235%, 43.137255%)"/><stop offset=".711" stop-color="rgb(23.529412%, 30.588235%, 43.137255%)"/><stop offset=".719" stop-color="rgb(23.529412%, 30.588235%, 43.137255%)"/><stop offset=".727" stop-color="rgb(23.921569%, 30.588235%, 43.529412%)"/><stop offset=".734" stop-color="rgb(23.921569%, 30.980392%, 43.529412%)"/><stop offset=".742" stop-color="rgb(23.921569%, 30.980392%, 43.529412%)"/><stop offset=".75" stop-color="rgb(24.313725%, 30.980392%, 43.921569%)"/><stop offset=".758" stop-color="rgb(24.313725%, 31.372549%, 43.921569%)"/><stop offset=".766" stop-color="rgb(24.313725%, 31.372549%, 43.921569%)"/><stop offset=".773" stop-color="rgb(24.705882%, 31.372549%, 44.313725%)"/><stop offset=".781" stop-color="rgb(24.705882%, 31.764706%, 44.313725%)"/><stop offset=".789" stop-color="rgb(24.705882%, 31.764706%, 44.313725%)"/><stop offset=".797" stop-color="rgb(24.705882%, 31.764706%, 44.313725%)"/><stop offset=".805" stop-color="rgb(25.098039%, 31.764706%, 44.705882%)"/><stop offset=".813" stop-color="rgb(25.098039%, 32.156863%, 44.705882%)"/><stop offset=".82" stop-color="rgb(25.098039%, 32.156863%, 44.705882%)"/><stop offset=".828" stop-color="rgb(25.490196%, 32.156863%, 45.098039%)"/><stop offset=".836" stop-color="rgb(25.490196%, 32.54902%, 45.098039%)"/><stop offset=".844" stop-color="rgb(25.490196%, 32.54902%, 45.098039%)"/><stop offset=".852" stop-color="rgb(25.490196%, 32.54902%, 45.098039%)"/><stop offset=".859" stop-color="rgb(25.882353%, 32.941176%, 45.490196%)"/><stop offset=".867" stop-color="rgb(25.882353%, 32.941176%, 45.490196%)"/><stop offset=".875" stop-color="rgb(25.882353%, 32.941176%, 45.490196%)"/><stop offset=".883" stop-color="rgb(26.27451%, 32.941176%, 45.882353%)"/><stop offset=".891" stop-color="rgb(26.27451%, 33.333333%, 45.882353%)"/><stop offset=".898" stop-color="rgb(26.27451%, 33.333333%, 45.882353%)"/><stop offset=".906" stop-color="rgb(26.666667%, 33.333333%, 46.27451%)"/><stop offset=".914" stop-color="rgb(26.666667%, 33.72549%, 46.27451%)"/><stop offset=".922" stop-color="rgb(26.666667%, 33.72549%, 46.27451%)"/><stop offset=".93" stop-color="rgb(26.666667%, 33.72549%, 46.27451%)"/><stop offset=".938" stop-color="rgb(27.058824%, 34.117647%, 46.666667%)"/><stop offset=".945" stop-color="rgb(27.058824%, 34.117647%, 46.666667%)"/><stop offset=".953" stop-color="rgb(27.058824%, 34.117647%, 46.666667%)"/><stop offset=".961" stop-color="rgb(27.45098%, 34.509804%, 47.058824%)"/><stop offset=".969" stop-color="rgb(27.45098%, 34.509804%, 47.058824%)"/><stop offset=".977" stop-color="rgb(27.843137%, 34.509804%, 47.058824%)"/><stop offset=".984" stop-color="rgb(28.235294%, 34.901961%, 46.666667%)"/><stop offset=".992" stop-color="rgb(28.627451%, 35.294118%, 46.666667%)"/><stop offset="1" stop-color="rgb(29.019608%, 35.294118%, 46.27451%)"/></linearGradient><linearGradient id="k" gradientUnits="userSpaceOnUse"/></defs><g clip-path="url(#B)"><g clip-path="url(#C)"><g clip-path="url(#D)"><path fill="url(#E)" d="M1791.859 1331.461H4000V671.809H1791.859zm0 0"/></g></g></g></svg>