<svg xmlns="http://www.w3.org/2000/svg" xmlns:xlink="http://www.w3.org/1999/xlink" viewBox="0 0 4000 2250" width="4000" height="2250" preserveAspectRatio="xMidYMid slice"><defs></defs><g fill="rgb(4.313725%, 8.235294%, 14.901961%)"><path d="M1278.551 1136.27a39.08 39.08 0 0 1-1.172-.02 7.91 7.91 0 0 0 1.172.02m-610.305-70.149l-1.047.02a4.47 4.47 0 0 0 1.047-.02m468.453 82.559l-.879.012a3.89 3.89 0 0 0 .879-.012m429.832 24.582a4.05 4.05 0 0 0 .891.047l-.891-.047m-1545.004-79.91c-.348 0-.699 0-1.047-.023.348.051.699.051 1.047.023M508.172 976.18l-.883.012a3.95 3.95 0 0 0 .883-.012m2748.316 246.929c-.277 0-.559 0-.84-.008a5.03 5.03 0 0 0 .84.008m-1320.578 29.11l-.871.012a4.99 4.99 0 0 0 .871-.012m453.988-52.16c-.258 0-.52-.008-.777-.02.258.039.52.039.777.02m-348.66 61.421c-.219 0-.437-.012-.66-.02.223.039.441.039.66.02m829.832-41.191l-.781.012c.262.027.52.02.781-.012"/><path d="M2508.871 1133.129c-.223 0-.441 0-.652-.008a3.08 3.08 0 0 0 .652.008m1051.051 87.172c-.262 0-.523 0-.781-.012a3.48 3.48 0 0 0 .781.012m362.066-87.18l-.648.008a3 3 0 0 0 .648-.008"/></g></svg>